<svg xmlns="http://www.w3.org/2000/svg"><defs>
        <style>
            .cls-1{fill:#fff}.cls-2{mask:url(#mask)}.cls-3{fill:#32568b}
        </style>
        <mask id="mask" x="0" y="0" width="40" height="40" maskUnits="userSpaceOnUse">
            <g id="mask-2">
                <rect id="path-1" class="cls-1" width="20" height="40" rx="1" ry="1"/>
            </g>
            <g id="mask-4">
                <rect id="path-3" class="cls-1" x="5" y="25" width="9" height="3" rx="1" ry="1"/>
            </g>
            <g id="mask-6">
                <rect id="path-5" class="cls-1" x="5" y="18" width="9" height="3" rx="1" ry="1"/>
            </g>
            <g id="mask-8">
                <rect id="path-7" class="cls-1" x="5" y="11" width="9" height="3" rx="1" ry="1"/>
            </g>
            <g id="mask-10">
                <path id="path-9" class="cls-1" d="M16 10.82a.74.74 0 0 1 1-.76l22 5.55a1.34 1.34 0 0 1 1 1.25V39a1 1 0 0 1-1 1H17a1 1 0 0 1-1-1z"/>
            </g>
        </mask>
    </defs><symbol id="icon-house-fix" viewBox="0 0 40 40">
    
    <title>
        &#x420;&#x435;&#x441;&#x443;&#x440;&#x441; 1
    </title>
    <g id="&#x421;&#x43B;&#x43E;&#x439;_2" data-name="&#x421;&#x43B;&#x43E;&#x439; 2">
        <g id="&#x421;&#x43B;&#x43E;&#x439;_1-2" data-name="&#x421;&#x43B;&#x43E;&#x439; 1">
            <g id="Page-1">
                <g id="DFS_Homepage-v2" data-name="DFS Homepage-v2">
                    <g class="cls-2" id="house">
                        <g id="Group">
                            <g id="Rectangle-5">
                                <path class="cls-3" d="M16 4v32H4V4h12m3-4H1a1 1 0 0 0-1 1v38a1 1 0 0 0 1 1h18a1 1 0 0 0 1-1V1a1 1 0 0 0-1-1z" id="path-1-2" data-name="path-1"/>
                            </g>
                            <g id="Rectangle-5-Copy-2">
                                <path class="cls-3" d="M13 25H6a1 1 0 0 0-1 1v1a1 1 0 0 0 1 1h7a1 1 0 0 0 1-1v-1a1 1 0 0 0-1-1z" id="path-3-2" data-name="path-3"/>
                            </g>
                            <g id="Rectangle-5-Copy-3">
                                <path class="cls-3" d="M13 18H6a1 1 0 0 0-1 1v1a1 1 0 0 0 1 1h7a1 1 0 0 0 1-1v-1a1 1 0 0 0-1-1z" id="path-5-2" data-name="path-5"/>
                            </g>
                            <g id="Rectangle-5-Copy-4">
                                <path class="cls-3" d="M13 11H6a1 1 0 0 0-1 1v1a1 1 0 0 0 1 1h7a1 1 0 0 0 1-1v-1a1 1 0 0 0-1-1z" id="path-7-2" data-name="path-7"/>
                            </g>
                            <g id="Rectangle-5-Copy">
                                <path class="cls-3" d="M20 14.95l16 4V36H20V14.95M16.74 10a.74.74 0 0 0-.74.79V39a1 1 0 0 0 1 1h22a1 1 0 0 0 1-1V16.86a1.34 1.34 0 0 0-1-1.25l-22-5.55h-.23z" id="path-9-2" data-name="path-9"/>
                            </g>
                        </g>
                    </g>
                </g>
            </g>
        </g>
    </g>
</symbol><symbol id="icon-user-fix" viewBox="266 309 34 36">
    <g fill-rule="evenodd" stroke-linecap="round">
        <path d="M298 337c0-4.97-6.715-9-15-9s-15 4.03-15 9"/>
        <path d="M283.5 328a8.5 8.5 0 1 0 0-17 8.5 8.5 0 0 0 0 17z"/>
        <path d="M298 337v4.924c0 .44-.15 1.076-.584 1.076h-28.457c-.426 0-.959-.642-.959-1.076V337"/>
    </g>
</symbol></svg>