<svg xmlns="http://www.w3.org/2000/svg" xmlns:xlink="http://www.w3.org/1999/xlink" viewBox="0 0 40 40"><defs><style>.cls-1{fill:#fff;}.cls-2{mask:url(#mask);}.cls-3{fill:#32568b;}</style><mask id="mask" x="0" y="0" width="40" height="40" maskUnits="userSpaceOnUse"><g id="mask-2"><rect id="path-1" class="cls-1" width="20" height="40" rx="1" ry="1"/></g><g id="mask-4"><rect id="path-3" class="cls-1" x="5" y="25" width="9" height="3" rx="1" ry="1"/></g><g id="mask-6"><rect id="path-5" class="cls-1" x="5" y="18" width="9" height="3" rx="1" ry="1"/></g><g id="mask-8"><rect id="path-7" class="cls-1" x="5" y="11" width="9" height="3" rx="1" ry="1"/></g><g id="mask-10"><path id="path-9" class="cls-1" d="M16,10.82a.74.74,0,0,1,1-.76L39,15.61a1.34,1.34,0,0,1,1,1.25V39a1,1,0,0,1-1,1H17a1,1,0,0,1-1-1Z"/></g></mask></defs><title>Ресурс 1</title><g id="Слой_2" data-name="Слой 2"><g id="Слой_1-2" data-name="Слой 1"><g id="Page-1"><g id="DFS_Homepage-v2" data-name="DFS Homepage-v2"><g id="house"><g class="cls-2"><g id="Group"><g id="Rectangle-5"><g id="path-1-2" data-name="path-1"><path class="cls-3" d="M16,4V36H4V4H16m3-4H1A1,1,0,0,0,0,1V39a1,1,0,0,0,1,1H19a1,1,0,0,0,1-1V1a1,1,0,0,0-1-1Z"/></g></g><g id="Rectangle-5-Copy-2"><g id="path-3-2" data-name="path-3"><path class="cls-3" d="M13,25H6a1,1,0,0,0-1,1v1a1,1,0,0,0,1,1h7a1,1,0,0,0,1-1V26a1,1,0,0,0-1-1Z"/></g></g><g id="Rectangle-5-Copy-3"><g id="path-5-2" data-name="path-5"><path class="cls-3" d="M13,18H6a1,1,0,0,0-1,1v1a1,1,0,0,0,1,1h7a1,1,0,0,0,1-1V19a1,1,0,0,0-1-1Z"/></g></g><g id="Rectangle-5-Copy-4"><g id="path-7-2" data-name="path-7"><path class="cls-3" d="M13,11H6a1,1,0,0,0-1,1v1a1,1,0,0,0,1,1h7a1,1,0,0,0,1-1V12a1,1,0,0,0-1-1Z"/></g></g><g id="Rectangle-5-Copy"><g id="path-9-2" data-name="path-9"><path class="cls-3" d="M20,14.95l16,4V36H20V14.95M16.74,10a.74.74,0,0,0-.74.79V39a1,1,0,0,0,1,1H39a1,1,0,0,0,1-1V16.86a1.34,1.34,0,0,0-1-1.25L17,10.06l-.23,0Z"/></g></g></g></g></g></g></g></g></g></svg>