<?xml version="1.0" encoding="UTF-8"?>
<svg width="40px" height="40px" viewBox="0 0 40 40" version="1.1" xmlns="http://www.w3.org/2000/svg" xmlns:xlink="http://www.w3.org/1999/xlink" stroke-location="inside">
    <!-- Generator: Sketch 40.3 (33839) - http://www.bohemiancoding.com/sketch -->
    <title>house</title>
    <desc>Created with Sketch.</desc>
    <defs>
        <rect id="path-1" x="0" y="0" width="20" height="40" rx="1"></rect>
        <mask id="mask-2" maskContentUnits="userSpaceOnUse" maskUnits="objectBoundingBox" x="0" y="0" width="20" height="40" fill="white">
            <use xlink:href="#path-1"></use>
        </mask>
        <rect id="path-3" x="5" y="25" width="9" height="3" rx="1"></rect>
        <mask id="mask-4" maskContentUnits="userSpaceOnUse" maskUnits="objectBoundingBox" x="0" y="0" width="9" height="3" fill="white">
            <use xlink:href="#path-3"></use>
        </mask>
        <rect id="path-5" x="5" y="18" width="9" height="3" rx="1"></rect>
        <mask id="mask-6" maskContentUnits="userSpaceOnUse" maskUnits="objectBoundingBox" x="0" y="0" width="9" height="3" fill="white">
            <use xlink:href="#path-5"></use>
        </mask>
        <rect id="path-7" x="5" y="11" width="9" height="3" rx="1"></rect>
        <mask id="mask-8" maskContentUnits="userSpaceOnUse" maskUnits="objectBoundingBox" x="0" y="0" width="9" height="3" fill="white">
            <use xlink:href="#path-7"></use>
        </mask>
        <path d="M16,10.8205545 C16,10.2659137 16.4370524,9.92622062 16.9705534,10.0604126 L39.0294466,15.6089065 C39.5654684,15.7437326 40,16.2927595 40,16.8598533 L40,38.9931774 C40,39.5492302 39.5525308,40 38.9993054,40 L17.0006946,40 C16.4480262,40 16,39.5498953 16,38.9957339 L16,10.8205545 Z" id="path-9"></path>
        <mask id="mask-10" maskContentUnits="userSpaceOnUse" maskUnits="objectBoundingBox" x="0" y="0" width="24" height="29.9688684" fill="white">
            <use xlink:href="#path-9"></use>
        </mask>
    </defs>
    <g id="Page-1" stroke="none" stroke-width="1" fill="none" fill-rule="evenodd">
        <g id="DFS_Homepage-v2" transform="translate(-986.000000, -307.000000)" stroke="#32568B">
            <g id="house" transform="translate(986.000000, 307.000000)">
                <g id="Group">
                    <use id="Rectangle-5" mask="url(#mask-2)" stroke-width="8" xlink:href="#path-1"></use>
                    <use id="Rectangle-5-Copy-2" mask="url(#mask-4)" stroke-width="8" xlink:href="#path-3"></use>
                    <use id="Rectangle-5-Copy-3" mask="url(#mask-6)" stroke-width="8" xlink:href="#path-5"></use>
                    <use id="Rectangle-5-Copy-4" mask="url(#mask-8)" stroke-width="8" xlink:href="#path-7"></use>
                    <use id="Rectangle-5-Copy" mask="url(#mask-10)" stroke-width="8" xlink:href="#path-9"></use>
                </g>
            </g>
        </g>
    </g>
</svg>