
<svg width="38px" height="36px" viewBox="504 310 38 36" version="1.1" xmlns="http://www.w3.org/2000/svg" xmlns:xlink="http://www.w3.org/1999/xlink">
    <!-- Generator: Sketch 40.3 (33839) - http://www.bohemiancoding.com/sketch -->
    <desc>Created with Sketch.</desc>
    <defs></defs>
    <g id="Icon" stroke="none" stroke-width="1" fill="none" fill-rule="evenodd" transform="translate(506.000000, 312.000000)" stroke-linecap="round" stroke-linejoin="round">
        <path d="M33,13 L33,30.7919167 C33,31.2407917 32.6416,32 32.2,32 L1.8,32 C1.3584,32 1,31.2407917 1,30.7919167 L1,13" id="Stroke-415" stroke="#32568B" stroke-width="4"></path>
        <path d="M24,4.16666667 C24,4.62666667 23.616,5 23.1428571,5 L12.8571429,5 C12.384,5 12,4.62666667 12,4.16666667 L12,0.833333333 C12,0.373333333 12.384,0 12.8571429,0 L23.1428571,0 C23.616,0 24,0.373333333 24,0.833333333 L24,4.16666667 L24,4.16666667 Z" id="Stroke-416" stroke="#32568B" stroke-width="4"></path>
        <path d="M29.1428571,15 L4.85714286,15 C2.17438095,15 0,12.3522459 0,9.62040993 L0,5.24568047 C0,4.78982492 0.362666667,5.10801704 0.80952381,5.10801704 L33.1904762,5.10801704 C33.6373333,5.10801704 34,4.78982492 34,5.24568047 L34,9.62040993 C34,12.3522459 31.825619,15 29.1428571,15 L29.1428571,15 Z" id="Stroke-417" stroke="#32568B" stroke-width="4"></path>
        <path d="M22,16 L22,19.6721429 C22,20.0664286 21.5968,21 21.1,21 L13.9,21 C13.4032,21 13,20.0664286 13,19.6721429 L13,16" id="Stroke-418" stroke="#32568B" stroke-width="4"></path>
    </g>
</svg>
