
<svg width="34px" height="36px" viewBox="266 309 34 36" version="1.1" xmlns="http://www.w3.org/2000/svg" xmlns:xlink="http://www.w3.org/1999/xlink">
    <!-- Generator: Sketch 40.3 (33839) - http://www.bohemiancoding.com/sketch -->
    <desc>Created with Sketch.</desc>
    <defs></defs>
    <g id="Icon" stroke="none" stroke-width="1" fill="none" fill-rule="evenodd" transform="translate(268.000000, 311.000000)" stroke-linecap="round">
        <path d="M30,26 C30,21.02975 23.2845,17 15,17 C6.7155,17 0,21.02975 0,26" id="Stroke-13" stroke="#FFFFFF" stroke-width="4"></path>
        <path d="M15.5,17 C20.1943182,17 24,13.1943182 24,8.5 C24,3.80568182 20.1943182,0 15.5,0 C10.8056818,0 7,3.80568182 7,8.5 C7,13.1943182 10.8056818,17 15.5,17 L15.5,17 Z" id="Stroke-15" stroke="#FFFFFF" stroke-width="4"></path>
        <path d="M30,26 L30,30.92375 C30,31.36325 29.85075,32 29.41575,32 L0.95925,32 C0.53325,32 0,31.358 0,30.92375 L0,26" id="Stroke-17" stroke="#FFFFFF" stroke-width="4"></path>
    </g>
</svg>
